<?xml version="1.0" encoding="UTF-8" standalone="no"?>
<!-- Created with Inkscape (http://www.inkscape.org/) -->

<svg
   xmlns:dc="http://purl.org/dc/elements/1.1/"
   xmlns:cc="http://creativecommons.org/ns#"
   xmlns:rdf="http://www.w3.org/1999/02/22-rdf-syntax-ns#"
   xmlns:svg="http://www.w3.org/2000/svg"
   xmlns="http://www.w3.org/2000/svg"
   xmlns:sodipodi="http://sodipodi.sourceforge.net/DTD/sodipodi-0.dtd"
   xmlns:inkscape="http://www.inkscape.org/namespaces/inkscape"
   id="svg2985"
   version="1.1"
   inkscape:version="0.48.0 r9654"
   width="798"
   height="781"
   sodipodi:docname="MSlogo.svg">
  <metadata
     id="metadata2991">
    <rdf:RDF>
      <cc:Work
         rdf:about="">
        <dc:format>image/svg+xml</dc:format>
        <dc:type
           rdf:resource="http://purl.org/dc/dcmitype/StillImage" />
        <dc:title></dc:title>
      </cc:Work>
    </rdf:RDF>
  </metadata>
  <defs
     id="defs2989" />
  <sodipodi:namedview
     pagecolor="#ffffff"
     bordercolor="#666666"
     borderopacity="1"
     objecttolerance="10"
     gridtolerance="10"
     guidetolerance="10"
     inkscape:pageopacity="0"
     inkscape:pageshadow="2"
     inkscape:window-width="1920"
     inkscape:window-height="1027"
     id="namedview2987"
     showgrid="false"
     inkscape:zoom="0.74519846"
     inkscape:cx="382.19934"
     inkscape:cy="435.58449"
     inkscape:window-x="1042"
     inkscape:window-y="605"
     inkscape:window-maximized="1"
     inkscape:current-layer="svg2985" />
  <g
     id="g3011"
     transform="translate(12.077324,-8.0515462)"
     style="fill:#ffffff">
    <path
       style="fill:#ffffff"
       d="m 565.3677,741.64846 c -12.81422,-2.20515 -25.88019,-10.84226 -31.20672,-20.62886 -1.46022,-2.6829 -6.76549,-15.67429 -11.7895,-28.86976 -17.42565,-45.76817 -28.67293,-73.59764 -31.6214,-78.24176 -1.22865,-1.93524 -2.2996,-2.25277 -7.65543,-2.26981 -19.70119,-0.0627 -45.33077,-7.59957 -61.78628,-18.16952 -2.99237,-1.92211 -8.84909,-6.68642 -13.01494,-10.58737 l -7.57427,-7.09264 -8.17092,2.37552 c -24.24856,7.04975 -58.83039,7.04186 -86.3567,-0.0197 -16.35926,-4.19679 -30.23755,-9.83679 -46.15725,-18.75785 l -8.83342,-4.95005 -13.66658,2.57231 c -20.9693,3.94683 -31.13313,4.95868 -50.16659,4.99426 -26.73216,0.05 -41.22724,-2.25951 -64.5,-10.2767 -21.14871,-7.2855 -39.445378,-18.55822 -56.685592,-34.92448 -24.427502,-23.1892 -40.517399,-48.53419 -47.505227,-74.83079 -2.377868,-8.9484 -2.610426,-11.53161 -2.638975,-29.31318 -0.03542,-22.0583 1.241626,-29.78254 8.442677,-51.06588 l 3.913224,-11.56589 -3.026401,-11.43411 c -9.849859,-37.21398 -7.182159,-73.64568 7.542595,-103.00616 6.212192,-12.38683 17.827734,-27.47681 27.642697,-35.91116 8.448143,-7.25981 24.002343,-18.07041 31.373854,-21.80571 3.631548,-1.84018 4.661909,-3.29169 9.787078,-13.78744 7.77141,-15.91495 14.59613,-26.05663 25.48966,-37.87815 17.58904,-19.0874 40.95672,-32.662955 67.91638,-39.456288 9.99021,-2.517349 28.82976,-5.089216 37.27973,-5.089216 7.25014,0 6.24819,0.538785 20.58763,-11.070735 19.7565,-15.995282 40.54522,-27.218454 61.8559,-33.394049 11.83318,-3.429121 32.76071,-6.535216 44.03146,-6.535216 8.53404,0 27.90126,2.449829 38.49757,4.869695 15.06382,3.440107 37.9206,13.077987 53.62162,22.610303 l 7.37607,4.478119 5.74903,-1.450898 c 23.2838,-5.876201 56.90315,-7.379866 79.24902,-3.544506 20.74085,3.559879 40.98511,11.519948 57.86922,22.754246 11.93247,7.939592 30.7361,27.001435 39.80501,40.351615 l 7.17422,10.56106 14.82578,6.69991 c 16.1955,7.3189 36.7667,19.63637 49.09954,29.39945 11.08531,8.77549 27.79619,26.32589 34.05992,35.77101 7.04145,10.61784 15.37197,27.77419 19.17983,39.5 5.83969,17.98259 8.50529,45.84642 5.92022,61.8847 -5.15662,31.99259 -10.85134,50.28399 -23.15571,74.37604 l -5.22944,10.23926 -0.0532,31.5 c -0.0507,30.03485 -0.17981,32.15847 -2.77561,45.65678 -3.30731,17.1982 -7.19699,29.22342 -14.26974,44.1159 -6.56379,13.82082 -12.35971,22.58389 -21.49249,32.49533 -10.56429,11.46501 -26.8148,23.65402 -40.95757,30.72104 -3.575,1.78639 -6.65557,3.38773 -6.84571,3.55852 -0.19015,0.17079 2.58253,6.97995 6.16151,15.13148 13.30267,30.29838 20.92522,50.55541 22.63834,60.16172 3.31343,18.58006 -13.34501,47.51914 -37.61194,65.33954 -22.9367,16.84355 -60.20395,27.61974 -82.3422,23.81007 z m 19.5,-46.35984 c 16.21378,-2.44163 33.53138,-10.89042 43.67047,-21.30564 6.26954,-6.44028 12.31743,-17.21229 11.35907,-20.23184 -0.9567,-3.01427 -14.46679,-32.80379 -24.48499,-53.98895 -10.54782,-22.30511 -21.04455,-48.01782 -21.04455,-51.55054 0,-2.8194 0.27205,-2.92519 13,-5.0553 45.61165,-7.63339 74.6332,-32.78498 84.94584,-73.61848 5.56476,-22.03402 6.42529,-49.19643 2.05546,-64.87979 -2.93602,-10.53742 -10.78033,-25.99867 -18.26469,-36 -13.64887,-18.23894 -34.90559,-33.11356 -58.53371,-40.9596 -9.03558,-3.00039 -29.48858,-7.15334 -44.2029,-8.97534 -6.59959,-0.8172 -9.391,-1.67706 -12.48521,-3.84595 -10.8001,-7.57033 -13.35672,-20.29643 -6.20763,-30.89978 4.83917,-7.17733 10.81834,-9.85262 21.67481,-9.69806 17.43754,0.24825 42.36984,5.19303 60.06469,11.91253 13.03522,4.95004 30.41526,13.98086 40.79663,21.19829 10.12999,7.04268 26.7943,22.45221 32.80738,30.33707 2.06555,2.70854 4.09101,4.58852 4.50101,4.17773 1.33578,-1.33836 6.5704,-18.49697 8.92241,-29.24689 1.8243,-8.33802 2.29897,-13.58854 2.3053,-25.5 0.01,-18.69859 -2.11469,-28.1409 -9.90053,-44 -9.3442,-19.03336 -23.52327,-34.51377 -43.99295,-48.03059 -11.77059,-7.77252 -35.37373,-19.68673 -45.48591,-22.96002 -9.36348,-3.03095 -10.54827,-3.99399 -14.94761,-12.15009 -6.6964,-12.41469 -12.64878,-20.61813 -21.1639,-29.16762 -20.03266,-20.11352 -43.3518,-29.45442 -73.38849,-29.39707 -32.90051,0.0628 -70.22497,14.93348 -88.9344,35.43289 -18.18733,19.92738 -22.23031,41.59249 -10.83951,58.08573 3.63744,5.26681 9.20838,8.22985 19.81391,10.53853 4.972,1.08234 10.65808,2.92257 12.63573,4.08941 4.70382,2.77533 8.46166,8.32383 9.91964,14.64651 0.99679,4.3227 0.91082,5.87761 -0.57177,10.34126 -2.12998,6.41278 -6.66612,11.77612 -12.01502,14.20608 -12.29296,5.58457 -39.9298,-2.10531 -55.725,-15.50534 l -6.36,-5.39558 -5.83933,5.9323 c -15.3931,15.63817 -33.78596,23.40418 -55.08425,23.25821 -9.19563,-0.063 -11.68128,-0.42734 -15.15327,-2.22098 -11.54574,-5.96454 -15.51447,-20.41511 -8.76849,-31.92705 3.52972,-6.02344 9.28948,-9.07879 19.54134,-10.36599 17.63075,-2.21369 18.74343,-2.60688 24.83508,-8.77605 6.73283,-6.81849 8.74422,-10.90849 18.01618,-36.63454 11.98688,-33.25885 22.24586,-51.52545 38.24559,-68.098084 4.83096,-5.003948 8.78357,-9.40744 8.78357,-9.78554 0,-1.282984 -9.45613,-4.757012 -21.5,-7.898746 -11.13103,-2.903612 -13.19484,-3.128589 -28.5,-3.106794 -18.04415,0.0257 -25.31329,1.356355 -40.61485,7.434784 -18.01653,7.156932 -29.05358,14.63476 -48.45246,32.82752 l -13.14788,12.33042 -5.64241,-0.85178 c -10.11896,-1.52756 -31.75082,-0.77543 -42.1424,1.46528 -30.13715,6.49841 -52.6102,24.123 -65.43315,51.31624 -2.42927,5.15168 -5.6881,13.14506 -7.24185,17.76305 l -2.825,8.39634 -5.5,2.41514 c -9.82711,4.31523 -21.12256,10.30088 -27.10431,14.36301 -14.556696,9.88526 -27.881027,27.46249 -32.762576,43.21983 -2.303934,7.43696 -2.54744,9.85581 -2.588164,25.70933 -0.02472,9.625 0.301419,18.73869 0.724762,20.25264 l 0.769716,2.75265 6.730284,-3.36207 c 7.930192,-3.96147 16.180928,-6.73867 29.230288,-9.83891 8.63686,-2.05193 11.90771,-2.25441 36,-2.22853 25.84979,0.0278 26.86804,0.10593 41.5,3.18586 19.71421,4.14972 24.33026,5.60838 29.42318,9.29767 11.79155,8.54176 11.13795,27.28626 -1.24251,35.63353 -6.77587,4.56849 -12.06661,5.10068 -23.67586,2.38156 -18.95584,-4.43985 -27.81711,-5.466 -47.50481,-5.5011 -12.29997,-0.0219 -21.1158,0.43675 -25,1.30073 -21.548096,4.79304 -37.865146,16.45393 -45.653424,32.62597 -5.316869,11.04026 -7.178814,20.47802 -6.510468,33 1.255868,23.52966 11.544921,44.20537 32.663889,65.63764 24.836513,25.20496 55.028563,36.89621 95.000003,36.78679 7.975,-0.0218 16.18944,-0.35126 18.2543,-0.73206 l 3.7543,-0.69237 -6.58813,-10.5 c -13.75309,-21.91933 -23.17332,-43.89048 -21.99029,-51.28876 1.87873,-11.74892 11.05724,-19.71124 22.72198,-19.71124 10.74318,0 17.56353,5.77338 22.95236,19.42903 16.62537,42.12978 47.64196,69.36031 93.20771,81.83023 7.07204,1.9354 10.6406,2.24038 26.18777,2.23813 17.18341,-0.002 18.53844,-0.14959 29.86876,-3.24264 20.63902,-5.63421 37.76337,-15.09624 52.89379,-29.22639 10.37903,-9.69286 18.54564,-20.492 29.13985,-38.53315 10.92278,-18.60065 19.83059,-30.69193 28.45646,-38.62619 19.70953,-18.12925 39.49147,-26.35615 66.24018,-27.54795 13.10832,-0.58404 13.80045,-0.5137 19.18065,1.94944 10.09903,4.62349 15.55434,15.89866 12.30554,25.43337 -2.2777,6.6847 -5.95457,11.57339 -10.71818,14.25068 -3.31512,1.86321 -6.44074,2.46793 -16.23625,3.1413 -27.56957,1.89521 -40.41973,10.93164 -57.903,40.71831 -21.86635,37.25422 -29.60032,47.47139 -46.88742,61.94192 -7.23545,6.05658 -7.73082,6.70749 -6.30424,8.28385 2.53233,2.79819 16.34856,7.69968 25.42838,9.02105 5.52462,0.80399 13.46028,1.01605 22.84832,0.61058 16.8771,-0.72893 17.90796,-0.40351 23.8173,7.51863 13.82394,18.53257 25.07089,42.60544 40.50293,86.69206 13.4025,38.2886 12.93835,37.1183 14.71838,37.11067 0.9067,-0.004 5.69855,-0.61696 10.64855,-1.36239 z m -230.5,-263.80549 c -9.46417,-2.68937 -14.39158,-9.72509 -17.12812,-24.45678 -4.7763,-25.71239 2.00355,-49.59589 19.2513,-67.81696 9.13232,-9.64765 17.28043,-15.27045 29.00468,-20.01534 17.65835,-7.14647 39.62993,-8.54036 51.19088,-3.24758 16.75716,7.67168 16.73758,32.69683 -0.0319,40.81482 -3.98961,1.93134 -6.49165,2.30752 -16.25121,2.44339 -12.51235,0.1742 -16.63579,1.2817 -25.11241,6.74486 -4.92874,3.17656 -10.03712,9.99675 -11.86449,15.84023 -1.47866,4.72841 -1.63894,10.28626 -0.61993,21.49596 1.13059,12.43719 0.37665,15.5863 -5.14478,21.48916 -6.43667,6.88132 -14.50657,9.2053 -23.29397,6.70824 z"
       id="path3025"
       inkscape:connector-curvature="0" />
    <path
       style="fill:#ffffff"
       d="m 564.3677,740.64958 c -10.51755,-1.80728 -22.23488,-9.11219 -27.95719,-17.42927 -1.63144,-2.37122 -9.66913,-21.80526 -17.86153,-43.18677 -20.51985,-53.55514 -26.84235,-68.28139 -29.54818,-68.82303 -1.1732,-0.23485 -6.54126,-0.69076 -11.92902,-1.01313 -28.09363,-1.68094 -55.43786,-13.5849 -72.14117,-31.40571 -3.446,-3.67655 -4.34443,-3.75538 -13.59241,-1.19263 -14.56678,4.03666 -27.26297,5.34475 -46.4705,4.78785 -31.14223,-0.90293 -57.58728,-8.32785 -84.48653,-23.7211 l -8.98137,-5.13964 -10.26605,1.99269 c -48.10389,9.33719 -81.98186,8.03089 -118.18164,-4.55698 C 73.719296,533.84199 30.386106,487.11212 18.662304,438.49731 c -1.376176,-5.70656 -1.767601,-11.56593 -1.759547,-26.33923 0.01188,-21.79175 1.047864,-28.15919 7.973146,-49.00515 l 4.32047,-13.00516 -2.938033,-11.40919 c -9.205279,-35.74662 -8.088977,-65.4932 3.54029,-94.33957 10.093175,-25.0361 29.489623,-46.37942 56.634963,-62.31957 l 10.083809,-5.92136 5.593548,-11.43623 c 7.85719,-16.06432 16.07916,-27.91652 27.61243,-39.80406 24.96346,-25.730304 57.63956,-39.749385 98.22914,-42.143425 10.75722,-0.634479 12.41632,-0.982123 15.10246,-3.164536 1.6597,-1.348464 6.216,-5.044031 10.12511,-8.212371 25.22609,-20.445819 51.73117,-32.699078 81.68761,-37.764065 37.09326,-6.271668 80.22359,3.214469 116.54431,25.632896 l 6.11142,3.772181 6.67213,-1.217519 c 3.66968,-0.669636 10.27214,-1.887486 14.67214,-2.706332 4.4,-0.818847 14.52257,-1.912823 22.49459,-2.431059 38.4792,-2.50141 70.83899,5.466846 99.50541,24.502154 10.83259,7.193141 32.32078,29.146196 40.4444,41.319356 5.64819,8.46374 6.77237,9.58689 11.89661,11.88571 25.01286,11.22123 42.78016,21.35299 57.15899,32.59478 10.50126,8.21019 25.73089,23.54804 32.06924,32.29712 12.73902,17.58418 23.84939,43.61179 27.05296,63.3754 0.84637,5.22149 1.34419,15.63558 1.29066,27 -0.0767,16.28367 -0.41657,19.99752 -2.83693,31 -4.71811,21.44756 -10.2819,37.22928 -20.54493,58.27586 l -6.00528,12.31514 0.60406,23.4545 c 0.86967,33.76788 -1.51022,53.75204 -9.12143,76.59341 -3.67694,11.03458 -11.49052,27.48216 -16.99585,35.7763 -11.84634,17.84727 -30.57867,34.21873 -51.54139,45.04555 -4.93411,2.54837 -8.97111,4.82235 -8.97111,5.05329 0,0.23094 2.5165,6.17225 5.59222,13.20292 15.76886,36.04542 24.40778,59.81584 24.40778,67.15921 0,7.80489 -5.67307,22.32091 -13.51319,34.57698 -4.82586,7.54403 -18.59328,21.148 -27.15451,26.83211 -24.42119,16.21412 -58.58006,25.44403 -80.3323,21.70623 z m 24.5,-45.15363 c 7.81567,-1.29949 22.73373,-7.55306 30.14033,-12.63466 8.77526,-6.02062 15.84031,-13.81068 19.34426,-21.32935 l 3.088,-6.62615 -4.95427,-11.37385 c -2.72485,-6.25562 -7.51556,-16.77386 -10.64603,-23.37386 -21.06298,-44.40727 -32.13099,-71.00139 -30.41171,-73.07299 0.51109,-0.61583 5.54404,-1.91643 11.18434,-2.89023 20.50785,-3.54067 39.27901,-11.00869 52.22493,-20.77746 8.72077,-6.58053 20.373,-20.02871 25.02579,-28.88297 4.7045,-8.95268 9.88141,-25.03702 12.02995,-37.37635 2.54486,-14.61538 2.57826,-39.62679 0.0661,-49.5 -7.86042,-30.89267 -30.32945,-58.26078 -60.16787,-73.28668 -15.30501,-7.70724 -32.88542,-12.40658 -60.31228,-16.12182 -12.7784,-1.73096 -17.20262,-4.32545 -21.36153,-12.527 -4.71604,-9.30026 -2.99923,-18.0154 4.96299,-25.19381 5.76386,-5.19646 9.85093,-6.26437 21.22503,-5.5459 49.77932,3.14443 99.95218,27.41703 127.72478,61.79064 3.05936,3.78651 5.90149,6.88457 6.31585,6.88457 2.4152,0 10.07959,-29.07509 12.03617,-45.65959 2.73945,-23.22025 -2.91326,-46.42063 -16.38381,-67.24396 -7.07646,-10.93909 -24.16336,-27.5272 -37.13101,-36.04711 -12.9698,-8.52132 -31.20616,-17.71048 -45.65169,-23.00355 l -10.34832,-3.79178 -5.03771,-8.877 c -11.038,-19.45021 -22.05262,-32.12485 -36.28538,-41.754 -22.51096,-15.22975 -52.38856,-20.37671 -82.33554,-14.18378 -28.642,5.92306 -50.26886,16.73027 -65.24133,32.60186 -11.92241,12.63839 -17.95062,25.95885 -17.85723,39.45891 0.11355,16.41557 8.83035,27.59648 23.75719,30.47298 14.4504,2.78468 20.82336,7.01505 23.95713,15.90275 2.05416,5.8258 1.91533,9.70582 -0.54116,15.12427 -4.31981,9.52849 -10.1002,13 -21.64623,13 -14.50482,0 -32.32889,-7.01283 -44.72654,-17.59753 l -6.0432,-5.15948 -8.04512,7.62851 c -12.33615,11.69733 -24.06317,17.83506 -39.77569,20.81795 -9.71563,1.84443 -22.89581,1.25065 -28.20951,-1.27086 -9.58904,-4.5503 -14.18828,-17.97046 -9.56801,-27.91859 4.08915,-8.80457 9.78734,-11.88086 24.87467,-13.42911 20.55174,-2.10901 25.6462,-7.97255 38.72479,-44.57089 12.79652,-35.80899 22.23206,-52.27049 40.8147,-71.206425 l 8.05331,-8.206422 -4.93457,-2.117918 c -6.1042,-2.619923 -19.12429,-6.434472 -27.57774,-8.079564 -10.43852,-2.031398 -32.85103,-1.571212 -42.87726,0.880379 -26.22277,6.411932 -42.76759,15.952121 -66.26989,38.21302 l -12.79032,12.11472 -8.70968,-0.7989 c -40.08205,-3.67652 -72.72494,8.23574 -93.37381,34.07457 -7.23188,9.04958 -12.10104,18.08515 -17.85148,33.12654 l -4.58769,12 -14.00368,7 c -17.16588,8.58068 -21.806989,11.76719 -31.393023,21.55392 -15.556681,15.88239 -23.030086,34.5429 -22.980191,57.37974 0.01909,8.73835 1.429862,21.86687 2.543391,23.6686 0.296268,0.47937 3.553248,-0.63412 7.237734,-2.47441 30.166859,-15.06751 75.368169,-17.33071 120.185829,-6.01762 15.10803,3.81363 20.32076,7.98366 23.12381,18.49831 3.22308,12.09024 -7.83837,25.80229 -20.8688,25.8695 -2.34202,0.0121 -9.042,-1.10837 -14.88883,-2.48989 -24.24727,-5.72927 -52.88458,-6.93667 -70.22968,-2.96101 -33.430036,7.66249 -51.491732,29.75935 -51.473233,62.97286 0.01348,24.19332 10.00608,45.69443 31.707971,68.2261 18.327902,19.02867 40.774102,30.91931 68.009812,36.0275 10.54988,1.97868 48.76386,2.51473 50.56922,0.70937 0.70524,-0.70524 -1.23126,-4.63633 -6.15565,-12.49595 -11.90237,-18.99688 -21.80966,-40.97774 -21.75942,-48.27662 0.0263,-3.82022 3.25428,-11.28073 6.29011,-14.53772 6.34205,-6.80406 17.99013,-8.50978 26.01131,-3.80905 5.60904,3.28711 7.97373,6.53819 12.35845,16.99089 12.10234,28.85074 26.94414,47.3584 50.81817,63.37002 13.95781,9.3611 33.16106,16.83103 51.15163,19.89764 22.12737,3.77175 50.71153,-0.70595 71.61957,-11.21918 16.45862,-8.27592 33.8939,-23.01118 45.10233,-38.11781 3.23045,-4.35396 9.62456,-14.33086 14.20914,-22.1709 9.5569,-16.34314 19.28966,-29.83042 26.17181,-36.26786 7.83985,-7.33326 19.96545,-15.82717 27.68776,-19.39509 13.84612,-6.3973 23.48157,-8.62933 39.60799,-9.17508 14.15077,-0.47889 14.69058,-0.42129 19.66223,2.09803 2.8116,1.42475 6.06097,3.92315 7.22082,5.55201 2.60485,3.65817 5.06999,10.46792 5.05695,13.96943 -0.0153,4.10076 -4.31259,12.32211 -8.246,15.77569 -4.59882,4.03781 -8.08992,5.04413 -19.85185,5.72232 -12.24962,0.70631 -17.42766,1.89157 -25.53675,5.84541 -12.52776,6.1083 -21.46235,16.27498 -35.39925,40.28085 -18.50363,31.8719 -29.39787,45.81712 -45.3106,58 -3.59192,2.75 -6.55665,5.55684 -6.58828,6.23743 -0.0776,1.6695 12.09963,7.699 20.02908,9.91733 5.12444,1.4336 10.43305,1.81229 26.41342,1.88419 11,0.0495 20.76256,0.43705 21.69457,0.86124 2.07739,0.94548 8.25623,9.03349 13.71703,17.95538 10.53911,17.21886 20.28182,40.04202 35.09604,82.21549 5.57342,15.86655 10.36013,29.21499 10.63714,29.6632 0.51746,0.83726 6.30481,0.3578 16.85522,-1.39639 z M 353.54359,430.5201 c -5.18162,-1.49272 -11.76611,-8.74588 -13.63484,-15.01948 -4.01118,-13.46611 -4.44047,-30.41404 -1.09785,-43.34254 0.8532,-3.3 3.64147,-10.18539 6.19616,-15.30088 10.7613,-21.54834 32.16008,-37.05698 57.82662,-41.9095 9.77112,-1.84732 27.27437,-1.31004 32.54449,0.99899 9.80355,4.2953 15.20747,15.40818 12.4942,25.69369 -1.72188,6.52735 -4.64724,10.43091 -10.29928,13.74322 -4.32932,2.53715 -5.55039,2.7476 -17.01997,2.93335 -11.80937,0.19126 -12.67621,0.35215 -19.59254,3.63671 -16.21251,7.69928 -21.63291,19.47928 -18.62658,40.48057 1.65976,11.59455 0.50121,16.04414 -5.82169,22.35917 -6.37691,6.36898 -14.0759,8.28853 -22.96872,5.7267 z"
       id="path3023"
       inkscape:connector-curvature="0" />
    <path
       style="fill:#ffffff"
       d="m 567.26357,740.59032 c -12.65048,-1.85977 -25.52962,-9.61299 -31.3464,-18.87046 -1.23089,-1.95898 -6.78044,-15.48678 -12.33233,-30.06178 -18.49641,-48.55742 -29.92587,-76.73919 -32.26611,-79.559 -0.51968,-0.62618 -5.3439,-1.4065 -10.72049,-1.73406 -21.67374,-1.32042 -42.35428,-7.68802 -58.48798,-18.00863 -3.10421,-1.98574 -9.02784,-6.82473 -13.16363,-10.75333 l -7.51961,-7.14289 -12.27966,3.08017 c -25.14355,6.30688 -56.40567,6.14079 -82.05115,-0.43593 -15.51071,-3.97767 -30.01971,-9.81779 -45.22851,-18.20525 l -10,-5.51486 -7,1.12121 c -3.85,0.61667 -12.02791,2.01278 -18.17314,3.10247 -30.11167,5.33949 -64.61483,4.23268 -90.32686,-2.89754 C 117.50412,549.47936 103.88576,543.34148 87.867697,532.85119 73.705496,523.57632 50.425735,500.19971 40.521689,485.30823 25.384256,462.54795 17.997294,442.02964 16.754934,419.29278 c -1.012906,-18.53754 1.52163,-34.41968 9.279915,-58.15064 l 3.601405,-11.01595 -3.591348,-14.48405 C 9.519443,268.99424 31.385913,214.63638 87.994059,181.64273 l 9.126362,-5.31923 5.344149,-11.08271 c 11.20172,-23.23015 29.21602,-45.01974 46.99204,-56.84024 23.22542,-15.444191 47.48193,-23.04936 80.71887,-25.307875 l 10.30778,-0.700434 7.69222,-6.455295 c 10.44764,-8.767639 32.85857,-23.578033 43.0306,-28.437026 36.41338,-17.394004 78.88949,-19.824932 119.16162,-6.819675 10.76441,3.4762 31.28564,13.084276 40.85814,19.129854 l 6.41458,4.051176 10.11364,-2.125415 c 44.86835,-9.429234 84.30031,-5.76378 117.71476,10.942345 21.43178,10.715187 43.91846,31.621815 58.0916,54.009725 3.46243,5.46927 3.66887,5.60571 18.84113,12.45244 16.62283,7.50133 35.11391,18.55075 48.20162,28.80307 11.47139,8.98617 28.19365,26.57061 34.9145,36.71464 12.62966,19.06243 21.15542,40.92205 23.75593,60.909 1.38265,10.62673 1.4095,32.07392 0.054,43.11723 -2.54467,20.73127 -10.71927,46.24717 -22.57014,70.4496 l -6.37737,13.02417 1.05998,19 c 2.30124,41.24905 -3.42727,72.6875 -18.70139,102.63465 -6.90699,13.54218 -15.01683,24.41925 -25.85815,34.68146 -9.22097,8.72843 -23.88212,18.98028 -34.76281,24.30801 -3.7125,1.81783 -6.75,3.94957 -6.75,4.73721 0,0.78764 2.88873,8.00355 6.41939,16.03537 15.75124,35.83212 22.58059,55.20606 22.58059,64.05817 0,7.29984 -3.88746,18.74729 -9.9862,29.40653 -15.74543,27.51945 -50.30869,48.24561 -89.33616,53.57118 -8.67055,1.18316 -9.73155,1.18314 -17.78177,-3.4e-4 z m 20.33222,-44.34886 c 16.10727,-3.08183 33.47551,-12.10027 42.94366,-22.29843 4.77361,-5.14167 10.84164,-15.80919 10.81147,-19.00643 -0.0181,-1.91317 -11.34901,-27.41214 -25.45282,-57.27852 -8.8714,-18.78617 -20.5304,-46.8643 -20.5304,-49.44292 0,-1.41268 2.61147,-2.12161 16.95582,-4.60297 8.07791,-1.39736 20.10412,-5.16731 28.49877,-8.93374 25.65895,-11.51239 44.05225,-33.31089 51.91014,-61.52037 4.32598,-15.53009 5.09167,-21.98045 5.10432,-43 0.012,-19.94468 0.003,-20.02548 -3.19654,-29.2115 -4.55912,-13.08871 -9.04032,-21.49013 -17.59041,-32.97871 -20.63131,-27.72188 -54.16246,-45.01489 -95.6821,-49.34611 -12.68933,-1.32372 -17.09006,-2.58925 -21.42274,-6.16061 -11.16022,-9.1992 -10.35168,-25.62671 1.65253,-33.57546 3.53736,-2.34231 5.34988,-2.77638 12.8313,-3.07287 16.08345,-0.6374 45.28556,5.06848 63.34058,12.37628 13.66711,5.53179 28.18458,13.09649 37.9546,19.77721 9.90197,6.77096 27.09967,22.70945 33.61283,31.15172 2.35077,3.04703 4.61726,5.54005 5.03665,5.54005 1.24472,0 5.89567,-13.55585 9.25629,-26.97874 2.92824,-11.69592 3.13593,-13.70773 3.15098,-30.52126 0.0142,-15.86581 -0.25801,-18.94853 -2.29582,-26 -11.50232,-39.8017 -44.38752,-70.17283 -97.81743,-90.33931 l -9.69879,-3.66069 -5.0882,-9 c -7.96007,-14.07976 -12.64468,-20.37039 -21.65446,-29.07818 -18.01846,-17.41455 -36.28337,-25.83235 -61.86223,-28.51061 -29.9411,-3.135013 -67.62516,7.69435 -91.91368,26.41346 -7.03092,5.41872 -15.95674,15.83748 -20.44728,23.86731 -9.47457,16.94211 -8.35916,36.80909 2.67298,47.60951 4.83477,4.73322 8.60792,6.46805 17.70008,8.13821 13.67615,2.51221 20.90788,9.0031 21.78261,19.55112 0.59712,7.20048 -1.69773,13.28893 -6.71852,17.82491 -5.3861,4.86602 -9.69777,6.04805 -18.91185,5.18462 -14.69301,-1.37685 -29.50191,-7.62279 -40.88032,-17.24207 -3.42094,-2.89205 -6.545,-5.25828 -6.94235,-5.25828 -0.39735,0 -2.9984,2.38192 -5.78011,5.29315 -14.21371,14.87553 -32.9407,23.38624 -52.76371,23.97913 -12.41542,0.37133 -16.36973,-0.75284 -21.82009,-6.2032 -3.88238,-3.88237 -4.97224,-5.77468 -5.85706,-10.16951 -1.30039,-6.45892 -0.34531,-11.44476 3.22617,-16.84163 3.49341,-5.27891 9.52914,-7.94912 20.84239,-9.22071 21.17179,-2.37967 26.92746,-7.76194 36.74342,-34.35966 2.83716,-7.68767 6.7427,-18.25257 8.67899,-23.47757 8.45476,-22.81483 20.93226,-43.18275 35.56179,-58.050117 4.30675,-4.376758 7.83045,-8.358121 7.83045,-8.847474 0,-1.319845 -11.40384,-5.643931 -23.15995,-8.781745 -9.469,-2.527362 -11.85638,-2.760035 -28.34005,-2.762002 -19.97855,-0.0024 -26.46892,1.19127 -43.2328,7.951014 -17.09784,6.894404 -28.06417,14.34887 -46.43597,31.565304 l -12.19175,11.42502 -20.56974,0.0137 c -17.58477,0.0117 -21.87577,0.32656 -29.56974,2.16971 -23.59284,5.65185 -42.39333,17.57736 -55.29137,35.07238 -6.92785,9.397 -10.95565,17.71895 -18.58103,38.3908 -1.31239,3.55779 -2.46544,4.94385 -4.92081,5.91522 -7.7386,3.06149 -23.70353,11.48386 -29.206793,15.40818 -8.436346,6.01586 -20.464214,18.93687 -25.467443,27.35856 -8.693353,14.63308 -12.092875,31.88319 -10.21342,51.82571 0.661826,7.02252 1.646203,13.21109 2.187503,13.75239 0.645577,0.64558 3.308084,-0.11186 7.738771,-2.20153 10.47503,-4.94042 19.089954,-7.83185 30.901682,-10.37156 9.63706,-2.07212 13.4296,-2.32905 33.85291,-2.29338 19.44985,0.034 24.92943,0.3904 35.5,2.30917 30.82444,5.59526 39.17254,9.65029 42.0776,20.43886 3.7844,14.05418 -5.71888,26.92056 -19.87306,26.90589 -3.1375,-0.003 -9.52954,-0.93329 -14.20454,-2.06675 -21.04763,-5.10301 -43.1122,-6.85393 -59.73811,-4.74048 -20.96779,2.66539 -32.839711,7.67253 -44.90324,18.93853 -13.278422,12.40058 -19.039435,28.15305 -18.126803,49.56451 0.774374,18.16777 6.865719,34.13803 19.411177,50.89214 17.116829,22.85904 36.534296,37.03529 62.500726,45.63035 14.59767,4.83193 27.61154,6.83194 45.35625,6.97049 16.1313,0.12595 24.50019,-0.79435 24.49969,-2.69415 -1.8e-4,-0.65381 -2.96274,-5.91374 -6.58347,-11.68874 -12.87822,-20.54051 -21.41622,-39.84045 -21.41622,-48.41082 0,-14.73684 16.35143,-24.95429 29.64033,-18.52125 6.12714,2.9661 9.52429,7.36932 13.66256,17.70872 7.81826,19.53378 17.21896,33.63005 31.89657,47.82864 21.86996,21.15619 49.9559,34.04454 79.42277,36.44627 26.12877,2.12966 54.03394,-5.32308 76.90086,-20.53821 17.7611,-11.81783 30.74995,-26.78175 46.01617,-53.01335 9.84311,-16.91321 18.45393,-28.5008 27.18814,-36.58714 7.21375,-6.67865 17.0268,-13.76105 23.7726,-17.15745 8.10783,-4.08216 23.28154,-8.47718 33.80518,-9.79158 17.75565,-2.21768 28.02655,-0.11203 33.98309,6.96692 8.00452,9.51283 5.07081,25.25828 -5.90458,31.69028 -4.01306,2.35181 -6.08987,2.76683 -17.22762,3.44265 -26.94111,1.63475 -39.85635,10.95592 -58.07242,41.91196 -22.16543,37.66748 -28.76013,46.44047 -44.99746,59.86053 -5.54741,4.58489 -10.08062,8.63489 -10.07381,9 0.0219,1.17232 6.29956,4.76406 12.98762,7.43078 11.39732,4.54444 24.3704,5.90761 45.19844,4.74931 10.695,-0.59478 11.75667,0.046 19.97628,12.05753 11.85759,17.32773 22.33014,40.45105 36.38416,80.33592 4.66871,13.24966 9.64854,27.35279 11.06629,31.34029 l 2.57774,7.25 4.31058,0 c 2.37081,0 7.64239,-0.63748 11.7146,-1.41662 z M 351.8677,429.32259 c -9.76654,-4.43241 -14.48068,-16.90521 -14.49421,-38.34913 -0.013,-20.64313 7.00426,-37.86316 21.41044,-52.54012 13.29444,-13.54433 29.37012,-21.13264 50.38791,-23.78494 17.57759,-2.21818 29.73835,1.06513 35.0672,9.46786 7.14902,11.27283 4.1971,23.83539 -7.32156,31.15857 -2.35046,1.49434 -5.60315,1.98569 -16,2.41694 -11.89952,0.49358 -13.63359,0.8146 -19.67316,3.64201 -8.63864,4.04415 -14.18117,9.16369 -17.49837,16.16294 -3.0117,6.35463 -3.41775,12.02864 -2.0153,28.16136 0.77418,8.90563 0.67903,9.77226 -1.52069,13.85158 -1.2906,2.39337 -4.2927,5.76137 -6.67135,7.48445 -3.74518,2.713 -5.28616,3.17021 -11.49786,3.41143 -4.48696,0.17424 -8.29646,-0.23129 -10.17305,-1.08295 z"
       id="path3021"
       inkscape:connector-curvature="0" />
    <path
       style="fill:#ffffff"
       d="m 564.3677,739.64958 c -11.34943,-1.95023 -25.09091,-11.76179 -29.70449,-21.20932 -1.15013,-2.3552 -6.01197,-14.63218 -10.80409,-27.28218 -16.63096,-43.90157 -30.39416,-77.80274 -32.40119,-79.80977 -0.48344,-0.48344 -6.12923,-1.29854 -12.5462,-1.81132 -18.87847,-1.50858 -33.50582,-5.30938 -47.44156,-12.32731 -8.41878,-4.23963 -22.2101,-14.51509 -25.80185,-19.22411 -3.15662,-4.13854 -3.56022,-4.13327 -21.30062,0.27842 -10.97133,2.72835 -12.55733,2.86021 -34.5,2.86827 -20.44804,0.008 -24.16503,-0.25044 -33.5,-2.32491 -20.76017,-4.61344 -38.43174,-11.29962 -55.91817,-21.15706 l -9.07926,-5.11816 -10.25129,1.9897 c -48.23782,9.36261 -81.85994,8.06516 -118.16687,-4.55997 -38.152921,-13.26703 -73.871017,-45.28155 -93.184738,-83.5225 -9.471568,-18.75359 -11.8874,-29.7896 -11.882417,-54.28128 0.0044,-21.7713 1.027163,-28.04329 7.990948,-49.00515 l 4.32047,-13.00516 -2.894225,-11.23907 c -5.449116,-21.16041 -7.278166,-38.29215 -5.843408,-54.7321 2.743117,-31.43158 14.005025,-56.67762 34.374433,-77.05784 10.903364,-10.90915 18.343364,-16.69229 31.268746,-24.30531 l 9.765778,-5.75202 6.207853,-12.27692 c 9.03823,-17.87438 16.30965,-28.23196 28.24434,-40.23192 12.11397,-12.18022 21.82876,-19.03532 37.49355,-26.456753 17.89304,-8.477102 43.22874,-14.437761 61.3675,-14.437761 3.88111,0 8.09836,-0.401264 9.37166,-0.891698 1.27331,-0.490433 5.9151,-3.91055 10.3151,-7.60026 48.61909,-40.770529 103.85672,-52.390744 161,-33.869201 9.48824,3.075372 31.67894,13.49509 39.78916,18.683136 3.16232,2.022913 6.75417,3.678023 7.98188,3.678023 1.22771,0 7.7507,-1.121699 14.49554,-2.492664 27.57782,-5.605505 58.78021,-5.223444 83.50491,1.022486 15.48038,3.910636 35.23238,13.238337 47.60377,22.480434 10.50122,7.844983 28.30978,26.565488 36.13913,37.989748 7.13851,10.41621 6.12503,9.6909 27.00894,19.32925 6.33783,2.92503 16.46283,8.39764 22.5,12.16134 37.68197,23.49176 61.13874,51.42596 73.03416,86.97492 5.7917,17.30825 6.85286,24.61223 6.83336,47.03449 -0.0158,18.15089 -0.27383,21.15569 -2.79105,32.5 -4.84767,21.84685 -10.63223,38.15053 -20.62528,58.13202 l -5.9641,11.92545 0.61179,23.72126 c 0.6633,25.71814 -0.22413,39.48702 -3.63311,56.36919 -6.74508,33.40348 -23.57064,63.65372 -45.4891,81.78369 -8.24371,6.81882 -21.49804,15.56999 -30.17715,19.92445 -3.39744,1.70455 -6.45488,3.54856 -6.79433,4.09779 -0.33945,0.54924 2.39529,7.87181 6.0772,16.27238 15.32407,34.96316 23.39428,57.26514 23.39428,64.64995 0,8.10521 -6.22723,23.69658 -14.02854,35.12382 -4.81822,7.05766 -18.65341,20.4318 -26.8413,25.94682 -23.0831,15.54783 -57.63818,24.73776 -79.13016,21.04468 z m 26.20261,-43.53167 c 13.84163,-2.7517 32.6516,-12.99001 40.89412,-22.25876 2.29932,-2.58559 5.73292,-7.94205 7.63024,-11.90324 l 3.44965,-7.20218 -8.01837,-17.79782 c -4.41011,-9.78881 -12.37292,-27.02283 -17.69514,-38.29783 -9.86051,-20.88928 -20.46311,-46.74469 -20.46311,-49.90119 0,-1.44404 2.10706,-2.13924 12.11737,-3.99795 31.8031,-5.90518 53.94287,-18.59931 69.84044,-40.04395 13.25544,-17.8806 20.25424,-43.4363 20.41851,-74.55691 0.0875,-16.57078 -0.65813,-21.28153 -5.4214,-34.25275 -9.39673,-25.58892 -31.1562,-49.25677 -57.45492,-62.4939 -15.26972,-7.68582 -32.69229,-12.52302 -55.01634,-15.27473 -7.02842,-0.86634 -14.17501,-2.16877 -15.8813,-2.8943 -7.01716,-2.98373 -12.55844,-11.40449 -12.55844,-19.08432 0,-8.18531 6.46887,-16.86398 14.56052,-19.53447 10.22847,-3.3757 48.48815,3.14996 71.18766,12.14193 13.08942,5.18512 32.33048,15.60878 41.45981,22.46045 10.27936,7.71479 23.62701,20.61521 29.67642,28.68209 2.37158,3.1625 4.66855,5.75 5.10439,5.75 2.58853,0 10.10113,-27.03063 12.59082,-45.30232 1.43628,-10.54073 1.49207,-13.69193 0.41072,-23.19768 -2.03875,-17.92179 -6.5947,-31.05814 -15.73693,-45.37485 -8.72296,-13.66014 -22.9232,-27.67447 -38.79733,-38.28941 -10.2499,-6.85404 -32.93198,-18.25015 -45.46095,-22.84085 -4.65352,-1.70508 -9.02077,-3.56476 -9.70501,-4.13262 -0.68423,-0.56787 -2.88345,-4.03169 -4.88714,-7.69738 -6.96804,-12.74782 -14.81765,-23.33616 -22.86557,-30.8434 -13.04466,-12.16827 -22.69119,-18.07018 -37.15847,-22.73419 -20.14582,-6.494684 -38.46694,-7.439105 -59.78366,-3.08173 -34.95344,7.14487 -60.31286,22.14606 -74.70353,44.19035 -11.71023,17.93827 -12.31156,38.32702 -1.50282,50.9546 4.30926,5.03439 9.69188,7.66336 21.01399,10.26362 13.23825,3.04031 19.07867,8.6966 20.31617,19.67565 0.72815,6.46012 -3.51906,14.66537 -9.58105,18.50977 -4.05351,2.57066 -5.47287,2.90044 -12.4834,2.90044 -4.35043,0 -10.67483,-0.70194 -14.05422,-1.55986 -9.74582,-2.47417 -23.47038,-9.61778 -30.45968,-15.85422 -3.44314,-3.07225 -6.44098,-5.58592 -6.66185,-5.58592 -0.22088,0 -3.9279,3.4875 -8.23783,7.75 -15.71571,15.54277 -35.67557,23.3326 -56.14506,21.91201 -10.82504,-0.75126 -14.6807,-2.73024 -18.88992,-9.69553 -3.84268,-6.35876 -4.31161,-13.0711 -1.35996,-19.46648 3.76567,-8.15909 9.06402,-10.90805 23.97298,-12.438 10.60675,-1.08846 15.26726,-2.77641 21.01173,-7.61006 6.04851,-5.08949 8.83846,-11.11461 22.66732,-48.95194 8.53212,-23.34483 20.88547,-43.72459 35.70793,-58.908617 4.8125,-4.929892 8.75,-9.262219 8.75,-9.627395 0,-1.116524 -11.96423,-5.771226 -22,-8.559129 -7.94315,-2.206582 -12.23438,-2.720486 -26.18537,-3.135877 -19.10915,-0.568975 -25.56512,0.265458 -40.47476,5.23136 -19.79337,6.592505 -31.88105,14.262213 -53.29161,33.813868 l -14.00967,12.79332 -12.09096,-1.11235 c -8.9201,-0.82063 -14.62913,-0.81699 -21.7693,0.0139 -44.81604,5.21511 -71.47865,26.94958 -87.29232,71.15777 l -3.2579,9.10769 -5.56406,2.42776 c -18.18331,7.9339 -27.770031,14.03181 -38.187724,24.29044 -16.899097,16.64106 -24.876329,35.59894 -24.876329,59.11856 0,9.55284 1.679207,23.90276 2.950511,25.21405 0.4401,0.45394 3.893776,-0.72015 7.674835,-2.60908 28.769897,-14.3728 67.950227,-17.19911 111.765597,-8.06234 20.77146,4.33145 26.8713,7.79779 30.02873,17.06433 1.97074,5.7838 1.97731,7.90513 0.0415,13.39184 -2.87454,8.14733 -10.74206,13.82422 -19.21938,13.86794 -2.34202,0.0121 -8.86702,-1.06466 -14.5,-2.39275 -33.03298,-7.78822 -66.01081,-7.0748 -86.226088,1.86535 -21.259328,9.40189 -33.564258,26.29822 -36.52941,50.15981 -3.159194,25.42312 6.016121,48.89923 29.772698,76.17692 15.46518,17.75737 44.05659,33.20568 69.74839,37.68595 17.79916,3.10392 51.93461,3.14447 53.11704,0.0631 0.26538,-0.69158 -2.25695,-5.48269 -5.60519,-10.64692 -13.17554,-20.3216 -23.56628,-43.95376 -22.72353,-51.6812 1.13837,-10.43811 9.95073,-18.37454 20.50935,-18.47075 10.11303,-0.0922 16.36627,5.07223 21.44187,17.70829 13.59824,33.85378 35.70001,58.26531 66.15548,73.0691 32.09055,15.59857 65.72892,17.46117 98.35037,5.4458 12.74943,-4.69596 27.29175,-13.50883 37.24725,-22.5724 14.26423,-12.98627 20.76328,-21.36781 34.80648,-44.88834 12.81887,-21.46993 19.63123,-30.20078 30.43029,-39 11.03864,-8.99443 17.83636,-13.05665 28.58714,-17.08327 12.47096,-4.67089 22.25659,-6.41819 35.88393,-6.40735 11.21892,0.009 12.04204,0.1527 16.9324,2.95755 8.76169,5.02522 12.39438,15.64505 8.42284,24.62338 -4.0461,9.14688 -10.33181,13.34343 -20.06308,13.3948 -8.44877,0.0446 -22.95501,2.55913 -28.35385,4.91489 -13.84571,6.04151 -24.25027,17.44552 -38.73811,42.45921 -15.27044,26.36488 -20.844,34.41408 -30.90804,44.63663 -5.225,5.30729 -12.0875,11.58346 -15.25,13.94704 -7.97318,5.95896 -7.75908,6.80237 3.05679,12.04166 11.47349,5.55783 16.77453,6.45579 38.69321,6.55441 11,0.0495 20.77626,0.4423 21.72502,0.87292 2.41838,1.09763 15.62925,21.27037 21.13092,32.26651 6.8406,13.67225 16.30635,37.49253 27.1498,68.32162 5.31988,15.125 10.13558,28.06018 10.70155,28.74485 1.15167,1.39318 7.77843,0.94488 18.99532,-1.28502 z M 353.41487,429.35316 c -5.30433,-1.69099 -10.7121,-7.73468 -12.53664,-14.01086 -6.45181,-22.19346 -3.81366,-44.09936 7.63486,-63.39607 1.84503,-3.10984 6.95461,-9.28439 11.35461,-13.72121 9.29527,-9.37305 18.40039,-14.89673 32.5,-19.71634 9.01546,-3.08172 10.26506,-3.24998 24.5,-3.29897 13.50672,-0.0465 15.39821,0.16267 19,2.10105 7.18578,3.86718 11.50671,10.58189 11.713,18.202 0.37857,13.98351 -10.76816,23.14982 -26.59861,21.87287 -15.74773,-1.27027 -31.52337,7.03774 -37.49772,19.74763 -3.08464,6.56229 -3.67697,13.73608 -2.11105,25.56727 1.17912,8.90877 1.13784,10.29337 -0.42918,14.39656 -3.99728,10.46673 -16.15861,15.88097 -27.52927,12.25607 z"
       id="path3019"
       inkscape:connector-curvature="0" />
    <path
       style="fill:#ffffff"
       d="m 566.19687,739.58199 c -12.1591,-1.78437 -25.97043,-10.8606 -30.51453,-20.05285 -1.18843,-2.40409 -8.90262,-21.92106 -17.14264,-43.37106 -16.3901,-42.66587 -25.48309,-64.44461 -27.42025,-65.67459 -0.68846,-0.43713 -3.72675,-0.81557 -6.75175,-0.84097 -14.46772,-0.1215 -35.72079,-4.88293 -48.47639,-10.86041 -11.38004,-5.33286 -17.81577,-9.67715 -26.80458,-18.09377 l -7.78098,-7.28568 -9.21902,2.56751 c -5.07047,1.41213 -12.81903,3.12348 -17.21903,3.80301 -11.13358,1.71944 -39.73133,1.47781 -52,-0.43936 -20.48774,-3.20153 -42.70042,-11.04571 -61.92467,-21.86806 -7.42182,-4.17813 -9.52672,-4.93676 -12.5,-4.5051 -1.96643,0.28548 -10.10033,1.65781 -18.07533,3.04962 -29.43233,5.13659 -58.92539,5.34237 -82.34805,0.57458 -12.5357,-2.5517 -31.84785,-9.05501 -42.15195,-14.19456 C 68.223902,523.6141 32.501953,482.37883 21.975169,445.54982 14.80915,420.47879 16.343278,392.44464 26.531216,362.29414 L 30.577608,350.31912 27.005573,335.7386 C 17.644255,297.52707 20.3938,264.98947 35.462739,235.65808 46.653069,213.87632 63.317988,197.10047 88.367697,182.40096 l 9.5,-5.57473 5.366453,-11.15198 c 7.22721,-15.01881 15.20772,-26.9097 25.24366,-37.61286 9.36675,-9.98947 12.35493,-12.57578 22.39783,-19.38565 13.04451,-8.845194 28.83173,-15.797482 45.24403,-19.92431 9.20495,-2.314562 30.07137,-5.093354 38.24686,-5.093354 5.76368,0 5.89834,-0.06784 15.15826,-7.635764 36.03688,-29.452173 68.90084,-42.4007 108.34291,-42.687523 27.01231,-0.196435 51.71296,5.880922 78.46434,19.305392 5.49325,2.756644 12.54642,6.648848 15.67369,8.649343 5.60677,3.586606 5.75682,3.620489 10.77396,2.432898 15.68744,-3.713319 28.12933,-5.271275 46.14405,-5.778094 16.57055,-0.466188 20.80955,-0.249313 32.5,1.662764 21.79559,3.564861 41.2689,11.103417 58.84413,22.779879 10.36387,6.885448 29.53395,25.798579 36.59983,36.109259 2.75,4.01286 6.16255,8.9534 7.58344,10.97898 2.16516,3.0866 5.03962,4.79588 17.75409,10.5574 15.40505,6.98073 34.59812,18.25197 46.24204,27.15589 10.21924,7.8145 26.61986,24.25983 33.0042,33.09418 12.99763,17.98553 23.47976,42.82474 26.46808,62.72063 2.74359,18.26652 2.87642,28.801 0.56307,44.65477 -3.74282,25.65012 -10.13787,45.71199 -22.95118,72 l -6.09275,12.5 1.04339,17 c 2.95719,48.1811 -5.95204,87.44529 -26.98547,118.92867 -10.29553,15.41061 -30.06562,32.42491 -49.66765,42.74437 -5.46582,2.87747 -9.46126,5.60807 -9.46126,6.4661 0,0.81688 3.76978,10.11975 8.37729,20.67305 8.21107,18.80708 17.32697,42.25647 19.51039,50.18781 3.25113,11.80979 -0.48315,25.88602 -11.39091,42.9376 -13.12127,20.51185 -40.36932,38.28867 -69.58862,45.40011 -16.32841,3.97403 -24.2688,4.67262 -35.07898,3.0862 z m 20.32827,-42.33689 c 9.54672,-1.54972 23.15742,-6.68037 31.16336,-11.74726 8.75664,-5.54199 17.54554,-14.65257 21.28575,-22.0648 1.8664,-3.69877 3.39345,-7.43668 3.39345,-8.30647 0,-2.04902 -7.39986,-18.98364 -18.99427,-43.46849 -16.62574,-35.10993 -27.54793,-61.14466 -26.64203,-63.50539 0.24127,-0.62875 4.42064,-1.72952 9.28749,-2.44617 12.26512,-1.80604 27.18403,-6.37796 37.84881,-11.59882 24.65372,-12.06904 42.45268,-33.82924 49.8543,-60.94962 4.13652,-15.15665 5.08471,-23.03361 5.11598,-42.5 0.0342,-21.27947 -1.23032,-27.46576 -8.89155,-43.5 -11.64968,-24.38166 -31.24281,-43.4619 -57.02125,-55.52861 -16.53104,-7.73806 -30.59194,-11.44877 -54.54922,-14.3957 -10.66648,-1.31206 -13.07741,-1.94774 -16.5,-4.35054 -11.99495,-8.42094 -11.80723,-25.20204 0.37216,-33.26933 5.89924,-3.9075 11.72786,-4.147 33.11958,-1.36094 37.34086,4.86329 73.98193,22.07934 99.86437,46.92193 5.32279,5.10894 11.46831,11.79381 13.65672,14.85525 2.1884,3.06145 4.62652,5.46676 5.41804,5.34513 3.08655,-0.47428 10.84543,-26.19525 13.18755,-43.71719 1.52025,-11.37336 0.58707,-29.41928 -2.06846,-40 -1.17332,-4.675 -4.57375,-13.45 -7.5565,-19.5 -15.7065,-31.85797 -47.49721,-56.40243 -95.78561,-73.95262 -4.20521,-1.52836 -5.13026,-2.42265 -7.64731,-7.39303 -11.81883,-23.33846 -31.23536,-43.0074 -51.54704,-52.21716 -15.05232,-6.82504 -36.17623,-10.604345 -52.52176,-9.396714 -17.02823,1.258074 -40.5477,7.699984 -55.5,15.201284 -20.98297,10.52679 -37.21286,27.21858 -43.77523,45.02106 -2.79206,7.57435 -2.99597,22.78069 -0.38535,28.73718 4.55728,10.39807 11.74921,16.58923 21.50439,18.51201 16.48633,3.24953 21.91502,6.91069 24.76046,16.69869 1.41612,4.87125 1.40435,5.74726 -0.1396,10.39566 -3.62707,10.92008 -11.33433,15.65765 -23.61556,14.51623 -3.91505,-0.36386 -9.19521,-1.15142 -11.73369,-1.75013 -7.85921,-1.85361 -22.6148,-9.54431 -29.46981,-15.35983 -3.57389,-3.03195 -6.94933,-5.51263 -7.50098,-5.51263 -0.55166,0 -3.62237,2.75409 -6.82382,6.1202 -14.47485,15.21935 -32.90247,23.16128 -53.82081,23.19568 -11.55121,0.019 -15.82753,-1.46353 -20.47109,-7.09698 -3.39734,-4.12155 -5.49584,-11.74705 -4.52002,-16.42476 1.13029,-5.41818 5.04501,-11.17514 9.17902,-13.49858 4.00211,-2.24931 13.77425,-4.2673 20.81209,-4.29777 9.14074,-0.0396 20.077,-8.60774 25.64128,-20.08898 1.44173,-2.97484 5.87131,-14.40881 9.8435,-25.40881 12.43128,-34.4253 21.87239,-51.05612 39.19205,-69.038014 9.94049,-10.320566 9.94885,-10.333512 7.63728,-11.828696 -3.80701,-2.462466 -11.67146,-5.242665 -23.31855,-8.243449 -10.03058,-2.584305 -12.53137,-2.832767 -28.49556,-2.831142 -15.10629,0.0015 -18.65355,0.314725 -25.9334,2.289655 -25.19178,6.83421 -41.78411,16.759628 -65.40753,39.126336 -9.78721,9.26655 -12.2154,11.0929 -14,10.52999 -1.18749,-0.37457 -8.45907,-0.90452 -16.15907,-1.17768 -12.21259,-0.43324 -15.5959,-0.17735 -26.5,2.00423 -20.25551,4.05252 -34.67152,11.03498 -47.7144,23.11069 -12.7116,11.76899 -19.75676,22.95377 -27.75076,44.05665 -3.1385,8.28514 -4.76693,11.30236 -6.60061,12.22993 -1.33883,0.67724 -7.07748,3.4945 -12.75256,6.26056 -13.25101,6.45862 -20.4188,11.36893 -29.115276,19.94546 -11.408124,11.25078 -18.007537,22.62599 -22.276686,38.39768 -3.749949,13.85358 -2.479963,46.6678 1.806151,46.6678 0.799736,0 4.480332,-1.51174 8.179102,-3.35942 7.968356,-3.98051 16.26537,-6.76616 29.225039,-9.81204 8.44267,-1.98427 12.2268,-2.23658 34,-2.26699 21.55042,-0.0301 25.94469,0.24371 36.5,2.2744 29.02187,5.58339 36.02094,8.56614 39.71931,16.92693 4.29282,9.70464 1.17512,20.24382 -7.59196,25.66409 -3.99048,2.46713 -5.76595,2.93203 -10.94524,2.86602 -3.40016,-0.0433 -10.00711,-1.07301 -14.68211,-2.28816 -4.675,-1.21514 -15.7,-3.04363 -24.5,-4.06328 -25.59137,-2.96529 -47.56024,-0.38095 -64.006781,7.52951 -10.316499,4.96204 -22.447846,16.50303 -27.138901,25.81822 -12.499959,24.8216 -9.087941,55.04546 9.302361,82.40089 6.894801,10.25597 21.156937,25.51318 30.132641,32.23502 19.78686,14.81823 46.00495,23.68257 75.71068,25.59779 10.01201,0.64551 30.24401,-0.92069 31.82203,-2.4634 0.45211,-0.44199 -2.64502,-6.33303 -6.88252,-13.09118 -13.31838,-21.24075 -21.43951,-39.47103 -21.43951,-48.1273 0,-11.35724 8.8662,-19.84663 20.71788,-19.83736 4.84564,0.004 9.44044,2.05331 13.99869,6.24416 1.21911,1.12085 4.23888,6.82903 6.7106,12.68485 9.81268,23.24746 19.8326,37.69345 36.22808,52.23098 13.72525,12.16988 28.13391,20.47889 45.71312,26.36126 15.84945,5.30355 23.01491,6.47501 39.6058,6.47501 13.55895,0 16.00814,-0.29337 28.30302,-3.39023 23.62054,-5.94958 41.50692,-16.07661 58.25457,-32.98295 10.914,-11.01743 17.44704,-19.97119 29.49061,-40.41791 13.00071,-22.0717 22.50245,-33.12971 37.43911,-43.57118 15.696,-10.97228 31.83669,-16.2316 53.13276,-17.31289 11.47681,-0.58272 12.37484,-0.48561 17.59052,1.90221 6.10958,2.79706 9.35752,6.6017 11.38402,13.33522 1.13115,3.75855 1.1069,5.16682 -0.16259,9.44167 -1.66817,5.61735 -6.13525,11.28747 -10.78818,13.6936 -1.99713,1.03275 -7.55367,1.88677 -15.75637,2.42168 -28.54102,1.8612 -40.6285,11.25606 -61.97244,48.16737 -17.49631,30.25739 -28.02012,43.58927 -44.76794,56.71341 -3.86022,3.025 -7.04169,6.0027 -7.06993,6.61711 -0.11255,2.44947 15.19619,10.135 23.44867,11.77206 9.31897,1.84863 21.42117,2.45177 31.48131,1.56896 13.08235,-1.14802 14.46905,-0.69235 19.93851,6.5519 14.59838,19.33541 26.72893,46.45809 46.18203,103.25837 7.36846,21.51484 7.22075,21.23226 11.09712,21.22779 1.81557,-0.002 7.19688,-0.63622 11.95847,-1.40917 z M 351.86993,428.08268 c -6.91117,-3.60359 -10.03988,-8.54577 -12.08918,-19.09638 -1.97986,-10.19309 -1.98022,-24.91652 -8.5e-4,-34.30917 2.40327,-11.40412 9.38938,-24.53068 17.9321,-33.69354 12.86063,-13.79422 28.15009,-21.76522 47.75916,-24.89872 26.48204,-4.2318 41.40071,3.00462 41.38313,20.07321 -0.008,7.57521 -2.65735,12.93523 -8.3989,16.99094 -4.05339,2.86323 -4.79846,3.0143 -17.44832,3.538 -12.54178,0.51923 -13.59748,0.72912 -20.74855,4.12515 -8.45296,4.01429 -13.73941,8.86495 -16.83225,15.4447 -3.51555,7.479 -4.40719,13.69191 -3.16428,22.04861 1.4753,9.91925 1.39368,15.74571 -0.27505,19.63472 -1.68271,3.92159 -7.11623,9.21706 -10.93434,10.65655 -4.16705,1.57104 -13.73258,1.28486 -17.18267,-0.51407 z"
       id="path3017"
       inkscape:connector-curvature="0" />
    <path
       style="fill:#ffffff"
       d="m 563.85618,738.71028 c -11.45099,-2.4734 -23.45858,-11.07653 -27.95968,-20.0324 -1.24938,-2.48589 -6.19831,-14.8698 -10.99761,-27.5198 -18.83194,-49.63718 -31.13797,-79.52091 -33.2956,-80.8544 -0.54873,-0.33913 -6.26996,-1.07879 -12.71385,-1.64369 -29.74017,-2.60716 -50.91114,-11.11706 -68.2604,-27.438 -4.58659,-4.31474 -8.91604,-7.56391 -10.07875,-7.56391 -1.12104,0 -6.1202,1.0924 -11.10924,2.42755 -14.37748,3.84767 -26.20861,4.93274 -46.48633,4.2634 -14.28811,-0.47163 -20.39741,-1.13254 -29.08702,-3.14666 C 293.87082,572.5674 278.98,566.85441 261.091,556.95415 l -9.77671,-5.41069 -10.22329,2.02738 c -23.66259,4.69251 -32.57161,5.58827 -55.2233,5.55242 -25.85334,-0.0409 -37.25825,-1.75649 -58.79359,-8.84392 C 100.71538,541.6045 85.318508,531.86305 63.834874,510.26851 48.255959,494.60917 40.856713,484.90926 32.093779,468.65808 c -10.529489,-19.52732 -13.226082,-31.04679 -13.226082,-56.5 0,-21.78074 1.008975,-27.93707 8.054057,-49.14239 l 4.366321,-13.1424 -1.927143,-6.73887 C 17.6627,302.22784 20.02148,266.14567 36.452296,234.65808 47.108086,214.2376 64.202595,197.33373 89.067508,182.62965 l 9.348697,-5.52844 5.932905,-12.23922 c 7.92911,-16.35727 16.53757,-28.7175 28.01859,-40.22975 15.77886,-15.82179 36.12518,-27.588168 58.5,-33.830845 14.40268,-4.018413 20.80541,-5.070405 36.50149,-5.997331 10.623,-0.627336 13.45991,-1.125107 15.42969,-2.707326 31.92906,-25.6469 45.23051,-33.521957 69.80999,-41.330655 25.88245,-8.222639 54.44329,-9.275436 81.75883,-3.013755 17.99913,4.126033 40.65581,13.456634 55.61254,22.902665 3.48614,2.201696 7.26233,4.003083 8.39152,4.003083 1.12919,0 7.55272,-1.108522 14.27451,-2.463382 24.32852,-4.903718 54.25823,-5.293423 75.44683,-0.982369 19.32196,3.931266 39.73081,12.815567 55.46689,24.145631 10.75745,7.745423 27.80927,25.645724 36.18474,37.985264 l 6.87703,10.13189 15.03194,6.81259 c 14.59797,6.6159 32.96906,17.31499 45.214,26.33206 3.3,2.43009 11.51515,9.81085 18.25588,16.40169 18.38484,17.97599 29.43066,35.64998 37.25407,59.60875 5.53354,16.94618 6.48126,23.75049 6.41086,46.02788 -0.0551,17.42245 -0.35406,20.83177 -2.80636,32 -4.04969,18.44298 -10.91763,38.12988 -19.20703,55.05678 l -7.34296,14.99429 0.59413,24.22446 c 0.6377,26.00108 -0.19872,38.68135 -3.69316,55.98858 -4.36871,21.63726 -14.64231,45.54848 -26.10772,60.76423 -11.51844,15.28613 -30.34141,30.66185 -49.05442,40.07056 -4.29181,2.15788 -7.80329,4.40326 -7.80329,4.98973 0,0.58647 2.99252,7.89395 6.65004,16.23884 15.56302,35.5081 23.367,57.22001 23.32866,64.90404 -0.0117,2.34767 -1.24921,7.87989 -2.75,12.29382 -10.91969,32.11568 -40.0815,55.98774 -80.7287,66.08506 -10.89089,2.70545 -29.0808,3.93884 -36.01152,2.44181 z m 26.89332,-41.67876 c 3.78498,-0.77076 10.50737,-2.97255 14.93863,-4.89285 18.56008,-8.04311 30.38233,-18.97383 36.02133,-33.30493 l 1.70154,-4.32435 -7.90501,-17.67565 c -4.34775,-9.72161 -12.21673,-26.78478 -17.48662,-37.91815 -9.48284,-20.03377 -20.65167,-46.92299 -20.65167,-49.71934 0,-0.88843 1.44842,-1.70308 3.75,-2.10914 39.31174,-6.93562 59.39837,-17.56269 77.36235,-40.92948 12.6607,-16.46852 19.86242,-40.61897 21.51469,-72.14795 1.2758,-24.3453 -5.64193,-45.33813 -22.1708,-67.28038 -10.66565,-14.15878 -24.48649,-25.56947 -40.95624,-33.81409 -16.07061,-8.04481 -33.56795,-12.9778 -55.69533,-15.70205 -14.39392,-1.77214 -16.14522,-2.28786 -20.65489,-6.0825 -10.02333,-8.43408 -9.20026,-23.40951 1.70156,-30.9592 4.29397,-2.97366 4.51148,-3.01142 16.5,-2.8646 36.88652,0.45172 82.93646,18.3668 110.66263,43.05175 6.6511,5.92156 14.67698,14.40611 21.05183,22.25493 2.0075,2.47167 4.04619,4.09336 4.66507,3.71087 2.85777,-1.7662 10.04082,-26.01423 12.31635,-41.57669 1.91942,-13.12697 0.76619,-35.55349 -2.37003,-46.08964 -6.88081,-23.11604 -21.1615,-43.0613 -42.50266,-59.36172 -14.27775,-10.90537 -34.76167,-21.89659 -55.02007,-29.52256 l -9.61046,-3.61771 -3.79551,-6.99901 c -12.28609,-22.65585 -29.26691,-40.15116 -48.32563,-49.78981 -6.8447,-3.46161 -19.0943,-7.32904 -29.42286,-9.28936 -28.49902,-5.409008 -68.82329,3.84408 -95.5,21.91409 -8.50505,5.76107 -19.66082,17.40388 -24.53156,25.60255 -11.05881,18.61472 -10.79389,38.85225 0.669,51.10701 4.98954,5.33422 8.39158,6.94632 20.71828,9.81762 12.83756,2.9903 17.98675,7.81778 19.37447,18.16402 0.94327,7.03259 -4.03784,16.01413 -10.82897,19.52596 -3.73625,1.93209 -16.41103,1.87854 -24.25688,-0.10249 -9.38949,-2.37078 -23.34731,-9.71076 -30.30467,-15.93627 -3.38817,-3.03178 -6.60877,-5.51232 -7.15688,-5.51232 -0.5481,0 -2.86831,2.23561 -5.15602,4.96803 -8.10407,9.67941 -23.39438,19.05528 -37.02677,22.70444 -6.8105,1.82305 -25.17687,2.47913 -30.17293,1.07782 -3.89364,-1.09209 -8.61378,-5.41189 -10.97871,-10.04753 -2.84855,-5.58362 -2.24782,-13.98964 1.39292,-19.49118 3.6749,-5.55313 9.15433,-7.90092 21.31234,-9.13175 11.62619,-1.17698 15.94635,-2.72985 21.46485,-7.71548 5.92582,-5.35363 10.13055,-13.1441 16.38847,-30.36435 12.03479,-33.11677 17.14521,-44.48399 25.78252,-57.34863 5.72206,-8.52258 16.78881,-21.496856 21.70698,-25.448497 2.25696,-1.813418 4.10356,-3.97914 4.10356,-4.812715 0,-2.065346 -10.13477,-6.474968 -23,-10.007266 -10.02502,-2.752485 -11.42734,-2.880797 -31,-2.836493 -19.47391,0.04408 -20.94768,0.184323 -29.44414,2.801882 -24.75839,7.627474 -38.65281,16.105153 -61.52232,37.537859 l -11.94831,11.19763 -12.45704,-1.07273 c -22.98015,-1.97893 -44.92834,2.38566 -63.62819,12.65303 -21.27513,11.68136 -35.60539,30.12527 -46.01371,59.22244 l -3.15763,8.82735 -7.66433,3.32423 c -17.21856,7.46816 -27.418747,14.31205 -38.279028,25.68358 -12.400555,12.98432 -19.155485,26.45633 -21.949426,43.77587 -1.793717,11.11918 -0.164108,37.60756 2.47611,40.24778 0.322782,0.32278 4.524631,-1.24735 9.337443,-3.48918 29.087181,-13.54896 60.523981,-16.41076 102.250571,-9.30821 25.98687,4.42339 34.01896,8.34649 37.46724,18.30005 1.74419,5.03465 1.82263,6.21916 0.69182,10.44714 -2.52494,9.44047 -9.80477,15.24482 -19.15906,15.27591 -2.475,0.008 -8.18069,-0.86748 -12.67932,-1.94602 -17.94704,-4.30279 -28.29683,-5.50903 -46.82068,-5.45686 -21.0196,0.0592 -30.57788,1.88568 -44.103227,8.42758 -28.726885,13.89454 -41.460679,46.41294 -31.720242,81.00427 5.58376,19.82967 24.46819,45.92953 43.408859,59.99466 25.03783,18.59282 55.86605,27.22207 91.58233,25.63519 15.05679,-0.66897 17.33228,-1.08132 17.33228,-3.14086 0,-0.71336 -3.31431,-6.62772 -7.36514,-13.14301 -12.28057,-19.75187 -21.63486,-40.26258 -21.63486,-47.4377 0,-6.42102 5.15195,-14.3322 11.5,-17.65906 4.44183,-2.32786 13.44999,-2.06128 17.62935,0.52171 5.7038,3.52514 7.82081,6.55327 12.49006,17.8656 8.17693,19.81043 16.94843,32.85148 31.52071,46.86347 11.39528,10.95714 21.58107,18.0636 35.11713,24.50063 36.8282,17.51354 76.68677,16.94662 111.64541,-1.58797 24.11172,-12.78371 39.54525,-28.82671 57.6366,-59.91266 20.32714,-34.92767 38.95812,-51.39309 67.96074,-60.06141 7.37976,-2.20566 11.62083,-2.77861 23.55796,-3.18255 13.21288,-0.44711 14.92219,-0.3059 18.5,1.52835 5.22606,2.67926 8.04738,5.84556 9.90824,11.11981 2.08697,5.91511 1.92288,8.71825 -0.86023,14.6953 -4.16941,8.95427 -9.07187,11.23676 -26.69202,12.42727 -14.12434,0.95432 -21.2044,3.19142 -30.88866,9.75992 -7.83222,5.31234 -18.18516,18.6391 -29.08287,37.43675 -17.57338,30.31265 -26.49566,42.22646 -39.52445,52.77656 -3.73571,3.025 -8.34801,6.8844 -10.24956,8.57645 l -3.45735,3.07645 2.36946,2.20749 c 3.14963,2.93433 13.15845,7.59704 21.04707,9.80499 5.13206,1.43642 10.29339,1.78855 26.51677,1.8091 23.37792,0.0296 21.16166,-0.86382 29.8254,12.02342 12.19284,18.13675 22.10621,40.54317 38.50656,87.03329 5.61897,15.92812 10.64917,29.76903 11.17823,30.75758 0.83019,1.55123 1.80985,1.70758 7.15368,1.14171 3.40547,-0.36062 9.28858,-1.28629 13.07357,-2.05704 z M 352.85912,427.85617 c -10.04411,-4.72098 -14.00675,-14.98911 -13.96941,-36.19809 0.0257,-14.62459 1.57238,-21.6047 7.42285,-33.5 9.01971,-18.33903 24.3384,-31.1909 46.05514,-38.6387 9.02617,-3.09554 10.24815,-3.26062 24.5,-3.30967 13.48216,-0.0464 15.40476,0.16528 19,2.09196 4.95637,2.65611 6.96723,4.83707 9.0452,9.81033 3.33965,7.99292 1.56529,17.48586 -4.21735,22.56308 -5.26079,4.61904 -7.57177,5.25051 -21.82785,5.96435 -11.26858,0.56426 -13.74904,1.01014 -18.62399,3.34781 -11.49218,5.51082 -19.0171,15.12525 -20.54125,26.24516 -0.3494,2.54915 -0.0469,9.74331 0.67231,15.98703 1.30277,11.31051 1.29853,11.36979 -1.15439,16.13628 -3.44047,6.68549 -8.94153,10.33911 -16.44809,10.92429 -4.43204,0.3455 -6.90429,-0.01 -9.91317,-1.42383 z"
       id="path3015"
       inkscape:connector-curvature="0" />
    <path
       style="fill:#ffffff"
       d="m 560.1654,736.79188 c -10.969,-3.63148 -19.45049,-10.31602 -23.64298,-18.6338 -1.10889,-2.2 -6.13355,-14.8 -11.16592,-28 -5.03236,-13.2 -11.02604,-28.89671 -13.31928,-34.88158 -2.29323,-5.98486 -7.54542,-18.80986 -11.67152,-28.5 l -7.502,-17.61842 -3.998,-0.24977 c -21.3093,-1.33126 -39.37864,-5.32719 -53.15639,-11.75522 -11.36773,-5.30364 -16.70459,-8.94572 -25.88028,-17.66174 -3.95651,-3.7583 -7.98062,-6.83327 -8.94246,-6.83327 -0.96183,0 -5.85956,1.1036 -10.88383,2.45244 -12.90818,3.4654 -23.97212,4.7525 -40.28383,4.68635 -33.30589,-0.13508 -58.0666,-6.92427 -91.00619,-24.95319 l -7.15498,-3.91616 -12.84502,2.32424 c -26.54645,4.80342 -36.52452,5.68802 -57.84502,5.12823 -24.8634,-0.65282 -36.77707,-2.79206 -58.63679,-10.52891 -20.0666,-7.10221 -37.200441,-17.9041 -54.127383,-34.12416 -42.162378,-40.40165 -57.125069,-83.62955 -45.713653,-132.06884 1.101345,-4.675 3.665763,-13.55791 5.698707,-19.73981 4.13805,-12.58323 4.247451,-9.45827 -1.129387,-32.26019 -7.591184,-32.19245 -4.567587,-64.62384 8.509755,-91.27641 10.903115,-22.22135 27.763401,-39.44468 53.847131,-55.00661 l 9.448383,-5.63704 6.083727,-12.28997 c 7.61411,-15.38158 13.44337,-24.20316 23.55745,-35.65018 10.37089,-11.73768 22.41463,-20.70876 38.46206,-28.64944 19.57787,-9.687622 34.78001,-13.617542 59.96985,-15.502865 9.13674,-0.683835 14.67221,-1.547697 16,-2.496951 1.11658,-0.798262 5.63015,-4.419309 10.03015,-8.046771 24.06964,-19.843571 51.2715,-33.234279 77.3392,-38.071905 13.50627,-2.506485 36.83905,-2.93572 50.68219,-0.932362 23.61014,3.416824 49.73822,13.156027 69.90661,26.057592 6.19296,3.961587 7.01122,4.067521 15.75995,2.040311 28.8213,-6.678327 62.731,-7.007928 87.7402,-0.852831 9.56986,2.355267 25.28597,8.6216 35.28484,14.068773 17.48186,9.523757 35.81983,26.704879 49.27808,46.169369 l 7.45446,10.78129 14.27723,6.38727 c 25.26664,11.30365 45.26065,24.54646 62.90106,41.66182 13.87563,13.46263 22.02949,24.55904 29.94162,40.74691 6.35867,13.00955 9.92227,23.09228 12.66738,35.8407 2.21327,10.27851 2.48623,45.74932 0.42448,55.1593 -5.88141,26.84317 -11.56593,43.52864 -21.63574,63.50628 l -5.79345,11.49372 -0.14391,33 c -0.13037,29.8967 -0.35716,34.08145 -2.41158,44.5 -4.69792,23.82445 -15.02735,48.44325 -27.16815,64.75159 -11.20846,15.05595 -29.37931,29.88386 -48.24538,39.36954 -4.31611,2.1701 -8.07301,4.53337 -8.34867,5.25171 -0.27565,0.71835 2.93755,9.14082 7.14046,18.71662 13.47943,30.71121 21.13337,51.4489 22.14664,60.00442 1.58962,13.42181 -9.88175,36.38452 -25.47686,50.99809 -14.90825,13.96993 -33.4426,23.80748 -55.72066,29.57505 -13.6806,3.54178 -32.39737,4.21627 -40.7023,1.46678 z m 29.10647,-38.71495 c 15.78432,-3.06635 32.3726,-11.78621 42.3795,-22.2774 5.94348,-6.23112 11.71633,-16.46119 11.71633,-20.76253 0,-2.74884 -8.68232,-22.63108 -25.27498,-57.87892 -10.99849,-23.36414 -20.15319,-45.94183 -19.41174,-47.87402 0.31935,-0.83219 3.73761,-1.84553 8.85345,-2.62458 44.91785,-6.84016 76.1387,-32.79896 87.198,-72.5014 4.43613,-15.92553 5.13279,-21.90911 5.12285,-44 l -0.009,-21 -3.2071,-9.2115 c -8.30761,-23.85994 -21.59286,-41.81501 -42.77148,-57.80516 -6.90944,-5.21673 -26.97548,-15.31648 -36.5,-18.37139 -8.65109,-2.77477 -28.67929,-6.78451 -38,-7.60779 -10.20202,-0.90113 -14.35562,-2.09107 -17.99838,-5.15625 -9.74827,-8.20263 -9.14498,-23.26427 1.20552,-30.09679 3.96235,-2.61561 4.73714,-2.74784 15.73024,-2.68445 39.25999,0.22635 85.61835,19.0369 114.40027,46.4195 4.90591,4.66739 11.61018,11.77859 14.89837,15.80267 3.49132,4.27267 6.60961,7.19058 7.49547,7.01383 1.96771,-0.39261 6.53457,-12.85971 10.5508,-28.80267 2.97807,-11.82185 3.14978,-13.53079 3.16517,-31.5 0.0145,-16.99281 -0.2306,-19.84513 -2.3205,-27 -8.47264,-29.00635 -27.74279,-52.67793 -58.40664,-71.7471 -10.03065,-6.23785 -31.75383,-16.67341 -41.09251,-19.74036 -3.77971,-1.24131 -7.52315,-2.98944 -8.31877,-3.88473 -0.79561,-0.8953 -4.45312,-6.76194 -8.1278,-13.03698 -13.2149,-22.56632 -31.51028,-38.60961 -53.41008,-46.83551 -22.68716,-8.521645 -46.77,-9.26443 -74.24179,-2.28983 -35.47033,9.00527 -63.41951,30.42278 -72.8138,55.79733 -1.65499,4.47022 -2.13085,8.05593 -2.15485,16.23718 -0.0363,12.36236 1.85564,17.73903 8.73712,24.83021 5.5036,5.6713 7.9877,6.88011 18.9549,9.2238 5.47185,1.16933 10.72877,2.99152 13.03675,4.51887 11.07925,7.3319 9.65064,25.70545 -2.48983,32.02213 -4.20938,2.19014 -18.22826,1.82179 -26.44432,-0.69483 -10.00451,-3.06444 -20.97854,-9.10519 -28.095,-15.46515 -4.70833,-4.20782 -6.73304,-5.41978 -8.25,-4.93831 -1.10569,0.35093 -2.01034,1.01643 -2.01034,1.47889 0,1.39295 -8.14934,9.33288 -14.06265,13.7013 -13.90829,10.27466 -28.87996,14.8758 -45.69941,14.0445 -11.32672,-0.55982 -13.35946,-1.39204 -17.88161,-7.32088 -2.19326,-2.87551 -2.86176,-4.97447 -3.18097,-9.98752 -0.34772,-5.46081 -0.0411,-6.96636 2.19611,-10.78391 3.51205,-5.99286 8.41087,-8.19517 22.23887,-9.99769 12.83349,-1.67288 17.23314,-3.5682 23.12785,-9.96321 5.23921,-5.68387 8.81439,-12.77495 14.70601,-29.1682 15.24241,-42.41156 24.85862,-59.75323 43.3058,-78.096769 4.5375,-4.512006 8.25,-8.881562 8.25,-9.710124 0,-1.977332 -11.49778,-6.734417 -25,-10.343484 -9.73823,-2.602975 -11.87843,-2.808152 -29.5,-2.828109 -16.94913,-0.01919 -19.91749,0.233569 -27.5,2.341709 -24.82694,6.902552 -40.17277,15.87819 -62.16237,36.358227 l -13.81426,12.86593 -12.78361,-0.95821 c -44.45111,-3.33185 -81.36025,15.13162 -100.24793,50.14815 -2.20285,4.08394 -5.9412,12.54597 -8.30744,18.8045 l -4.30226,11.37916 -14.06078,7.01951 c -15.4701,7.72308 -22.216008,12.40943 -31.366027,21.78981 -10.390082,10.65167 -16.837804,21.752 -21.044333,36.2297 -1.926376,6.63005 -2.331831,10.39741 -2.367705,22 -0.04809,15.55451 0.896071,24.35102 2.909197,27.10413 1.269177,1.7357 1.782709,1.61988 10.192016,-2.2988 12.185478,-5.67835 18.069808,-7.66305 30.855502,-10.40709 9.71237,-2.08445 13.57527,-2.35702 33,-2.32849 19.55102,0.0287 23.60439,0.33154 36.41275,2.72041 20.05668,3.74074 30.15779,6.96755 34.43311,10.99969 6.4043,6.04004 7.26999,16.5587 1.97706,24.02251 -5.62717,7.93512 -13.85499,9.54502 -28.78992,5.63319 -9.87363,-2.58615 -35.62763,-5.94294 -45.60686,-5.94442 -16.27965,-0.002 -36.9192,4.61784 -48.35386,10.82425 -2.710245,1.47104 -8.386093,5.92587 -12.612995,9.89962 -14.786155,13.9006 -21.387306,33.46709 -18.871557,55.93723 2.424019,21.65082 13.029024,41.92164 32.708079,62.51947 25.579613,26.77388 63.471203,40.51359 105.956103,38.42029 14.10851,-0.69515 18.24809,-1.62212 18.24809,-4.08628 0,-0.84358 -2.39259,-5.24222 -5.31686,-9.77475 -7.80736,-12.10118 -9.10871,-14.36078 -14.16296,-24.59209 -6.30086,-12.75483 -9.52018,-21.65099 -9.52018,-26.30777 0,-12.49288 14.03689,-22.20498 25.28212,-17.49264 6.1668,2.58422 9.32662,6.28479 13.1363,15.38438 9.4755,22.63261 17.89853,35.40124 33.12628,50.21671 22.39126,21.78502 49.36279,34.30359 80.14594,37.19893 33.76765,3.17606 69.38946,-9.44684 95.21263,-33.73943 10.45354,-9.83394 19.8645,-22.40064 30.63599,-40.90905 13.27535,-22.81075 22.57421,-33.95587 37.51997,-44.96951 13.91373,-10.25313 30.3563,-16.07381 49.5431,-17.5383 13.30403,-1.01547 16.93638,-0.6837 22.39767,2.04575 4.51129,2.25466 6.86007,4.90413 8.55119,9.64586 1.97324,5.53281 1.73851,9.15204 -0.971,14.97133 -1.83408,3.93911 -3.50413,5.80203 -7.07996,7.8976 -4.14721,2.43043 -6.12027,2.83058 -17.33996,3.51666 -26.96267,1.64876 -40.34029,11.30648 -58.77377,42.43061 -17.47807,29.51095 -20.9176,34.80465 -28.38967,43.69386 -4.47834,5.32769 -11.89222,12.51245 -17.3421,16.80614 -5.23577,4.125 -9.77065,8.08801 -10.07752,8.80668 -1.36035,3.18589 10.10829,9.78906 23.42014,13.48436 6.37734,1.77032 10.44167,2.09217 27.09764,2.14583 14.52009,0.0468 20.00062,0.39949 21.1612,1.36187 0.86141,0.71431 4.08752,5.0492 7.16914,9.63308 13.71005,20.39359 25.00997,46.54288 43.24255,100.06818 7.09714,20.83504 7.01786,20.7189 13.62409,19.95748 2.86442,-0.33014 8.53991,-1.24753 12.6122,-2.03863 z M 352.84911,427.26451 c -4.25118,-1.85236 -9.19767,-7.83899 -10.51297,-12.72363 -10.07668,-37.42195 5.85899,-73.78452 39.35872,-89.81004 17.03495,-8.14914 38.15344,-10.77912 52.0196,-6.47824 6.98796,2.16746 11.93895,9.63981 11.93895,18.01903 0,6.77664 -2.73233,12.11559 -8.1207,15.86778 -4.1611,2.89758 -4.86308,3.03906 -17.5,3.52706 -12.11927,0.46801 -13.69112,0.75701 -19.78839,3.63821 -8.56753,4.04851 -14.33241,9.33236 -17.90629,16.41218 -3.75188,7.43243 -4.50455,13.84952 -2.9776,25.38631 0.68764,5.19539 0.94515,11.07249 0.57225,13.06021 -0.8119,4.32782 -6.75353,11.25142 -11.28286,13.14757 -4.05208,1.69636 -11.8536,1.67343 -15.80071,-0.0464 z"
       id="path3013"
       inkscape:connector-curvature="0" />
  </g>
</svg>
